<svg xmlns="http://www.w3.org/2000/svg" width="15" height="18" fill="none"><path fill="#fff" d="M12.231 9.573A4.092 4.092 0 0 1 14.18 6.14a4.187 4.187 0 0 0-3.299-1.784c-1.388-.146-2.734.83-3.44.83-.722 0-1.81-.815-2.984-.791A4.394 4.394 0 0 0 .76 6.65c-1.598 2.768-.406 6.836 1.125 9.073.766 1.096 1.662 2.32 2.834 2.276 1.146-.047 1.574-.731 2.958-.731 1.371 0 1.773.731 2.969.703 1.23-.02 2.005-1.1 2.744-2.206a9.06 9.06 0 0 0 1.255-2.556 3.953 3.953 0 0 1-2.413-3.636ZM9.973 2.885A4.028 4.028 0 0 0 10.894 0a4.098 4.098 0 0 0-2.651 1.372 3.832 3.832 0 0 0-.945 2.778 3.388 3.388 0 0 0 2.675-1.265Z"/></svg>