<svg xmlns="http://www.w3.org/2000/svg" width="18" height="18"><g id="login" fill="none" fill-rule="evenodd" stroke="none" stroke-width="1"><g transform="translate(-125 -165)" id="Group-14" fill="#FFF"><g id="sosomed" transform="translate(89 150)"><path id="facebook-official---FontAwesome" d="M52.194 15.286c.525 0 .949.424.949.948V31.48a.948.948 0 0 1-.949.949H47.83v-6.641h2.221l.335-2.59H47.83v-1.651c0-.748.201-1.25 1.284-1.25l1.361-.011v-2.31a17.81 17.81 0 0 0-1.986-.101c-1.976 0-3.337 1.205-3.337 3.415V23.2H42.92v2.589h2.232v6.64h-8.203A.948.948 0 0 1 36 31.48V16.234c0-.524.424-.948.949-.948h15.245Z"/></g></g></g></svg>