<svg xmlns="http://www.w3.org/2000/svg" width="24" height="24"><g fill="none" fill-rule="evenodd"><path fill="#4285F4" d="M20.16 12.193c0-.603-.054-1.182-.155-1.738H12v3.287h4.575a3.91 3.91 0 0 1-1.697 2.566v2.133h2.747c1.608-1.48 2.535-3.66 2.535-6.248Z" class="icon_svg-fill_as_stroke"/><path fill="#34A853" d="M12 20.5c2.295 0 4.22-.761 5.625-2.06l-2.747-2.132c-.76.51-1.734.811-2.878.811-2.214 0-4.088-1.495-4.756-3.504h-2.84v2.202A8.497 8.497 0 0 0 12 20.5Z" class="icon_svg-fill_as_stroke"/><path fill="#FBBC05" d="M7.244 13.615A5.11 5.11 0 0 1 6.977 12c0-.56.097-1.105.267-1.615V8.183h-2.84A8.497 8.497 0 0 0 3.5 12c0 1.372.328 2.67.904 3.817l2.84-2.202Z" class="icon_svg-fill_as_stroke"/><path fill="#EA4335" d="M12 6.88c1.248 0 2.368.43 3.25 1.272l2.437-2.438C16.215 4.342 14.291 3.5 12 3.5a8.497 8.497 0 0 0-7.596 4.683l2.84 2.202C7.912 8.375 9.786 6.881 12 6.881Z" class="icon_svg-fill_as_stroke"/></g></svg>