<svg xmlns="http://www.w3.org/2000/svg" width="16" height="16"><g id="Page-1" fill="none" fill-rule="evenodd" stroke="none" stroke-width="1"><g id="Version-B" fill="#FFF" transform="translate(-735 -673)"><path id="Shape" d="M743.018 679.871v2.71h4.482c-.18 1.162-1.355 3.41-4.482 3.41-2.698 0-4.9-2.236-4.9-4.991 0-2.755 2.202-4.99 4.9-4.99 1.536 0 2.563.655 3.15 1.22l2.145-2.067c-1.377-1.287-3.161-2.066-5.295-2.066a7.897 7.897 0 0 0-7.903 7.903 7.897 7.897 0 0 0 7.903 7.903c4.561 0 7.587-3.206 7.587-7.722 0-.52-.056-.915-.124-1.31h-7.463Z"/></g></g></svg>