<svg xmlns="http://www.w3.org/2000/svg" width="50" height="50" fill="none" viewBox="0 0 50 50"><circle cx="25" cy="25" r="25" fill="#C4C4C4"/><circle cx="25" cy="25" r="25" fill="url(#paint0_linear)"/><path fill="#F8C884" fill-rule="evenodd" d="M39 48L28.2 3H22.8L12 48H17.85L25.5 14.7387L33.15 48H39Z" clip-rule="evenodd"/><path fill="#F29C1F" fill-rule="evenodd" d="M3 7.5H48V35.4H3V7.5Z" clip-rule="evenodd"/><path stroke="#FFF9F0" stroke-linecap="round" stroke-linejoin="round" stroke-miterlimit="10" d="M7.5 30.4502L13.3608 24.5894L16.05 26.8502L23.6946 19.6448L27.75 23.7002L34.5 16.9502L36.75 19.2002L43.5 12.4502"/><path fill="#E57E25" fill-rule="evenodd" d="M35.9766 35.3999H30.2526L30.4596 36.2999H36.1926L35.9766 35.3999ZM14.8086 36.2999H20.5416L20.7486 35.3999H15.0246L14.8086 36.2999Z" clip-rule="evenodd"/><defs><linearGradient id="paint0_linear" x1="25" x2="25" y1="-105" y2="33" gradientUnits="userSpaceOnUse"><stop offset=".037" stop-color="#F29C1F"/><stop offset="1" stop-color="#FFF9F0"/></linearGradient></defs></svg>