<svg xmlns="http://www.w3.org/2000/svg" width="50" height="50" fill="none"><circle cx="25" cy="25" r="25" fill="#C4C4C4"/><circle cx="25" cy="25" r="25" fill="url(#a)"/><path fill="#F8C884" fill-rule="evenodd" d="M39 48 28.2 3h-5.4L12 48h5.85l7.65-33.261L33.15 48H39Z" clip-rule="evenodd"/><path fill="#F29C1F" fill-rule="evenodd" d="M3 7.5h45v27.9H3V7.5Z" clip-rule="evenodd"/><path stroke="#FFF9F0" stroke-linecap="round" stroke-linejoin="round" stroke-miterlimit="10" d="m7.5 30.45 5.86-5.86 2.69 2.26 7.645-7.205L27.75 23.7l6.75-6.75 2.25 2.25 6.75-6.75"/><path fill="#E57E25" fill-rule="evenodd" d="M35.977 35.4h-5.724l.207.9h5.733l-.216-.9Zm-21.168.9h5.733l.207-.9h-5.724l-.216.9Z" clip-rule="evenodd"/><defs><linearGradient id="a" x1="25" x2="25" y1="-105" y2="33" gradientUnits="userSpaceOnUse"><stop offset=".037" stop-color="#F29C1F"/><stop offset="1" stop-color="#FFF9F0"/></linearGradient></defs></svg>