<svg xmlns="http://www.w3.org/2000/svg" width="80" height="100" viewBox="14.5 17.8 80 100" xml:space="preserve"><path fill="#B71072" d="M93.2 59.3c5.4 24.9-6.7 53.1-28.1 57.8-21.4 4.7-43.9-15.9-49.4-40.9-5.4-24.9 6.7-53.1 28.1-57.8 21.5-4.6 44 16 49.4 40.9z"/><path fill="#EA5CAE" d="M21.1 68.5C16.3 46.3 27.9 25 46.9 20.8c19-4.1 38.3 10.5 43.1 32.7 4.8 22.2-6.8 43.5-25.8 47.7-19 4.1-38.3-10.5-43.1-32.7z" opacity=".5"/><path fill="#EA5CAE" d="M29.4 62.5c-4-18.7 5.7-36.7 21.7-40.1s32.2 8.8 36.3 27.5c4 18.7-5.7 36.7-21.7 40.1-16 3.5-32.2-8.8-36.3-27.5z"/></svg>