<svg xmlns="http://www.w3.org/2000/svg" width="80" height="100" viewBox="14.5 17.8 80 100" xml:space="preserve"><path fill="#C99B09" d="M94.2 60.1c5.4 24.9-6.7 53.1-28.1 57.8C44.8 122.5 22.2 102 16.7 77c-5.4-25 6.7-53.1 28.1-57.8 21.5-4.6 44.1 16 49.4 40.9z"/><path fill="#E0CE2D" d="M47.9 21.6c19-4.1 38.3 10.5 43.1 32.7 4.8 22.2-6.8 43.5-25.8 47.7-19 4.1-38.3-10.5-43.1-32.7-4.8-22.2 6.8-43.5 25.8-47.7z" opacity=".5"/><path fill="#E0CE2D" d="M52.1 23.2c16-3.5 32.2 8.8 36.2 27.5s-5.7 36.7-21.7 40.1c-16 3.5-32.2-8.8-36.2-27.5s5.7-36.6 21.7-40.1z"/></svg>