<svg xmlns="http://www.w3.org/2000/svg" width="385" height="265" fill="none" viewBox="0 0 385 265"><path fill="#fff" d="M384.97 132.487C384.97 129.275 383.647 126.207 381.445 123.897L262.357 3.60599C257.653 -1.14601 250.038 -1.13401 245.346 3.60599C240.642 8.34599 240.642 16.045 245.346 20.785L343.91 120.336H12.03C5.39 120.337 0 125.774 0 132.487C0 139.2 5.39 144.638 12.03 144.638H343.898L245.346 244.189C240.642 248.929 240.654 256.628 245.346 261.368C250.05 266.108 257.665 266.108 262.357 261.368L381.445 141.077C383.694 138.803 384.934 135.675 384.97 132.487Z"/></svg>