<svg xmlns="http://www.w3.org/2000/svg" id="a87032b8-5b37-4b7e-a4d9-4dbfbe394641" width="744.848" height="747.077" data-name="Layer 1"><path id="fa3b9e12-7275-481e-bee9-64fd9595a50d" fill="#f2f2f2" d="m299.205 705.809-6.56-25.872a335.967 335.967 0 0 0-35.643-12.788l-.828 12.024-3.358-13.247c-15.021-4.294-25.24-6.183-25.24-6.183s13.8 52.489 42.754 92.617l33.734 5.926-26.207 3.779a135.926 135.926 0 0 0 11.719 12.422c42.115 39.092 89.024 57.028 104.773 40.06s-5.625-62.412-47.74-101.5c-13.056-12.12-29.457-21.844-45.875-29.5Z" data-name="Path 1" transform="translate(-227.576 -76.461)"/><path id="bde08021-c30f-4979-a9d8-cb90b72b5ca2" fill="#f2f2f2" d="m361.591 677.706 7.758-25.538a335.94 335.94 0 0 0-23.9-29.37l-6.924 9.864 3.972-13.076c-10.641-11.436-18.412-18.335-18.412-18.335s-15.315 52.067-11.275 101.384l25.815 22.51-24.392-10.312a135.919 135.919 0 0 0 3.614 16.694c15.846 55.234 46.731 94.835 68.983 88.451s27.446-56.335 11.6-111.569c-4.912-17.123-13.926-33.926-24.023-48.965Z" data-name="Path 2" transform="translate(-227.576 -76.461)"/><path id="b3ac2088-de9b-4f7f-bc99-0ed9705c1a9d" fill="#e6e6e6" d="M747.327 253.445h-4.092v-112.1a64.883 64.883 0 0 0-64.883-64.883H440.845a64.883 64.883 0 0 0-64.883 64.883v615a64.883 64.883 0 0 0 64.883 64.883h237.507a64.883 64.883 0 0 0 64.882-64.883V333.239h4.092Z" data-name="Path 22" transform="translate(-227.576 -76.461)"/><path id="b2715b96-3117-487c-acc0-20904544b5b7" fill="#fff" d="M680.97 93.335h-31a23.02 23.02 0 0 1-21.316 31.715H492.589a23.02 23.02 0 0 1-21.314-31.715h-28.956a48.454 48.454 0 0 0-48.454 48.455v614.106a48.454 48.454 0 0 0 48.454 48.454H680.97a48.454 48.454 0 0 0 48.454-48.454V141.79a48.454 48.454 0 0 0-48.454-48.453Z" data-name="Path 23" transform="translate(-227.576 -76.461)"/><path id="b06d66ec-6c84-45dd-8c27-1263a6253192" fill="#ccc" d="M531.234 337.965a24.437 24.437 0 0 1 12.23-21.174 24.45 24.45 0 1 0 0 42.345 24.434 24.434 0 0 1-12.23-21.171Z" data-name="Path 6" transform="translate(-227.576 -76.461)"/><path id="e73810fe-4cf4-40cc-8c7c-ca544ce30bd4" fill="#ccc" d="M561.971 337.965a24.436 24.436 0 0 1 12.23-21.174 24.45 24.45 0 1 0 0 42.345 24.434 24.434 0 0 1-12.23-21.171Z" data-name="Path 7" transform="translate(-227.576 -76.461)"/><circle id="a4813fcf-056e-4514-bb8b-e6506f49341f" cx="364.434" cy="261.502" r="24.45" fill="#2265d4" data-name="Ellipse 1"/><path id="bbe451c3-febc-41ba-8083-4c8307a2e73e" fill="#ccc" d="M632.872 414.33h-142.5a5.123 5.123 0 0 1-5.117-5.117v-142.5a5.123 5.123 0 0 1 5.117-5.117h142.5a5.123 5.123 0 0 1 5.117 5.117v142.5a5.123 5.123 0 0 1-5.117 5.117Zm-142.5-150.686a3.073 3.073 0 0 0-3.07 3.07v142.5a3.073 3.073 0 0 0 3.07 3.07h142.5a3.073 3.073 0 0 0 3.07-3.07v-142.5a3.073 3.073 0 0 0-3.07-3.07Z" data-name="Path 8" transform="translate(-227.576 -76.461)"/><path id="bb28937d-932f-4fdf-befe-f406e51091fe" fill="#ccc" data-name="Rectangle 1" d="M218.562 447.102h218.552v2.047H218.562z"/><circle id="fcef55fc-4968-45b2-93bb-1a1080c85fc7" cx="225.464" cy="427.42" r="6.902" fill="#2265d4" data-name="Ellipse 2"/><path id="ff33d889-4c74-4b91-85ef-b4882cc8fe76" fill="#ccc" data-name="Rectangle 2" d="M218.562 516.118h218.552v2.047H218.562z"/><circle id="e8fa0310-b872-4adf-aedd-0c6eda09f3b8" cx="225.464" cy="496.437" r="6.902" fill="#2265d4" data-name="Ellipse 3"/><path fill="#2265d4" d="M660.69 671.172h-69.068a4.505 4.505 0 0 1-4.5-4.5v-24.208a4.505 4.505 0 0 1 4.5-4.5h69.068a4.505 4.505 0 0 1 4.5 4.5v24.208a4.505 4.505 0 0 1-4.5 4.5Z" transform="translate(-227.576 -76.461)"/><circle id="e12ee00d-aa4a-4413-a013-11d20b7f97f7" cx="247.978" cy="427.42" r="6.902" fill="#2265d4" data-name="Ellipse 7"/><circle id="f58f497e-6949-45c8-be5f-eee2aa0f6586" cx="270.492" cy="427.42" r="6.902" fill="#2265d4" data-name="Ellipse 8"/><circle id="b4d4939a-c6e6-4f4d-ba6c-e8b05485017d" cx="247.978" cy="496.437" r="6.902" fill="#2265d4" data-name="Ellipse 9"/><circle id="aff120b1-519b-4e96-ac87-836aa55663de" cx="270.492" cy="496.437" r="6.902" fill="#2265d4" data-name="Ellipse 10"/><path id="f1094013-1297-477a-ac57-08eac07c4bd5" fill="#3f3d56" d="M969.642 823.539H251.656c-1.537 0-2.782-.546-2.782-1.218s1.245-1.22 2.782-1.22h717.986c1.536 0 2.782.547 2.782 1.22s-1.246 1.218-2.782 1.218Z" data-name="Path 88" transform="translate(-227.576 -76.461)"/><path fill="#ffb8b8" d="M792.253 565.923a10.094 10.094 0 0 1 1.41.787l44.853-19.143 1.6-11.815 17.922-.11-1.059 27.098-59.2 15.656a10.608 10.608 0 0 1-.447 1.209 10.235 10.235 0 1 1-5.08-13.682Z" transform="translate(-227.576 -76.461)"/><path fill="#ffb8b8" d="M636.98 735.021h-12.26l-5.832-47.288 18.094.001-.002 47.287z"/><path fill="#2f2e41" d="M615.963 731.518h23.644v14.887h-38.531a14.887 14.887 0 0 1 14.887-14.887Z"/><path fill="#ffb8b8" d="m684.66 731.557-12.201 1.202-10.441-46.488 18.007-1.774 4.635 47.06z"/><path fill="#2f2e41" d="M891.686 806.128h23.644v14.886h-38.531a14.887 14.887 0 0 1 14.887-14.886Z" transform="rotate(-5.625 4.111 3091.428)"/><circle cx="640.393" cy="384.574" r="24.561" fill="#ffb8b8"/><path fill="#2f2e41" d="M849.556 801.92a4.47 4.47 0 0 1-4.415-3.698c-6.345-35.225-27.088-150.405-27.584-153.596a1.427 1.427 0 0 1-.015-.221v-8.588a1.489 1.489 0 0 1 .279-.872l2.74-3.838a1.478 1.478 0 0 1 1.144-.625c15.622-.732 66.784-2.879 69.256.209 2.482 3.103 1.605 12.507 1.404 14.36l.01.194L915.36 792.24a4.512 4.512 0 0 1-3.715 5.135l-14.356 2.365a4.521 4.521 0 0 1-5.026-3.093c-4.44-14.188-19.329-61.918-24.489-80.387a.5.5 0 0 0-.98.139c.258 17.605.88 62.523 1.095 78.037l.024 1.671a4.518 4.518 0 0 1-4.093 4.536l-13.844 1.258c-.14.013-.281.018-.42.018Z" transform="translate(-227.576 -76.461)"/><path id="ae7af94f-88d7-4204-9f07-e3651de85c05" fill="#2265d4" d="M852.38 495.254c-4.285 2.548-6.85 7.23-8.322 11.995a113.681 113.681 0 0 0-4.884 27.16l-1.556 27.6-19.255 73.17c16.689 14.12 26.315 10.911 48.78-.64s25.033 3.852 25.033 3.852l4.492-62.259 6.419-68.032a30.164 30.164 0 0 0-4.862-4.674 49.658 49.658 0 0 0-42.442-8.995Z" data-name="Path 99" transform="translate(-227.576 -76.461)"/><path fill="#ffb8b8" d="M846.127 580.7a10.526 10.526 0 0 1 1.5.704l44.349-22.197.736-12.025 18.293-1.262.98 27.413-59.265 19.6a10.496 10.496 0 1 1-6.593-12.233Z" transform="translate(-227.576 -76.461)"/><path id="a6768b0e-63d0-4b31-8462-9b2e0b00f0fd" fill="#2265d4" d="M902.766 508.412c10.911 3.85 12.833 45.573 12.833 45.573-12.837-7.06-28.241 4.493-28.241 4.493s-3.21-10.911-7.06-25.032a24.53 24.53 0 0 1 5.134-23.106s6.422-5.782 17.334-1.928Z" data-name="Path 101" transform="translate(-227.576 -76.461)"/><path id="bfd7963f-0cf8-4885-9d3a-2c00bccda2e3" fill="#2f2e41" d="M889.991 467.53c-3.06-2.448-7.235 2.002-7.235 2.002l-2.448-22.033s-15.301 1.833-25.094-.612-11.322 8.875-11.322 8.875a78.58 78.58 0 0 1-.306-13.77c.611-5.509 8.568-11.017 22.645-14.69s21.42 12.241 21.42 12.241c9.794 4.896 5.4 30.436 2.34 27.988Z" data-name="Path 102" transform="translate(-227.576 -76.461)"/></svg>