<svg xmlns="http://www.w3.org/2000/svg" id="f7dcc58f-beb5-4050-9d04-9a029c12a87b" width="960" height="794.981" data-name="Layer 1"><path fill="#f2f2f2" d="M968.81 506.952c-5.27 45.15-16.22 81.4-31.25 110.31-20 38.52-54.21 54.04-84.77 70.28a193.277 193.277 0 0 1-27.46 11.94c-55.61 19.3-117.85 14.18-166.74 3.99a657.297 657.297 0 0 0-104.09-13.16q-14.97-.675-29.97-.67c-15.42.02-293.07 5.29-360.67-131.57-16.69-33.76-28.13-75-32.24-125.27-11.63-142.12 52.29-235.46 134.74-296.47 155.97-115.41 369.76-110.57 523.43 7.88 102.36 78.9 198.2 198.31 179.02 362.74Z" transform="translate(-120 -52.51)"/><path fill="#007c89" d="M420 465.807c0 112.967-67.157 152.41-150 152.41s-150-39.443-150-152.41 150-256.68 150-256.68 150 143.712 150 256.68Z" transform="translate(-120 -52.51)"/><path fill="#3f3d56" d="m144.536 548.428 1.536-94.544 63.934-116.963-63.693 102.132.69-42.51 44.063-84.622-43.88 73.372 1.242-76.457 47.184-67.37-46.989 55.347.776-140.195-4.877 185.593.401-7.656-47.972-73.429 47.203 88.126-4.47 85.39-.133-2.267-55.303-77.273 55.135 85.28-.559 10.679-.1.16.046.877-11.34 216.641h15.151l1.818-111.899 55-85.071-54.863 76.659z"/><path fill="#007c89" d="M1080 472.807c0 112.967-67.157 152.41-150 152.41s-150-39.443-150-152.41 150-256.68 150-256.68 150 143.712 150 256.68Z" transform="translate(-120 -52.51)"/><path fill="#3f3d56" d="m804.536 555.428 1.536-94.544 63.934-116.963-63.693 102.132.69-42.51 44.063-84.622-43.88 73.372 1.242-76.457 47.184-67.37-46.989 55.347.776-140.195-4.877 185.593.401-7.656-47.972-73.429 47.203 88.126-4.47 85.39-.133-2.267-55.303-77.273 55.135 85.28-.559 10.679-.1.16.046.877-11.34 216.641h15.151l1.818-111.899 55-85.071-54.863 76.659z"/><path fill="#007c89" d="M768 376.864c0 123.511-73.425 166.637-164 166.637s-164-43.126-164-166.637S604 96.228 604 96.228s164 157.125 164 280.636Z" transform="translate(-120 -52.51)"/><path fill="#3f3d56" d="m478.026 472.098 1.679-103.368 69.901-127.88-69.637 111.665.755-46.478 48.175-92.52-47.976 80.22 1.358-83.593 51.588-73.658-51.374 60.513.848-153.28-5.332 202.915.438-8.371L426 157.981l51.608 96.351-4.887 93.36-.145-2.479-60.465-84.484 60.282 93.239-.612 11.675-.109.176.05.958-12.399 236.861h16.566l1.987-122.343 60.134-93.011-59.984 83.814z"/><path fill="#3f3d56" d="M952 738.49c0 26.51-173.714 109-388 109s-388-82.49-388-109 159.714-86 374-86 402 59.49 402 86Z" transform="translate(-120 -52.51)"/><path d="M952 738.49c0 26.51-173.714 109-388 109s-388-82.49-388-109 159.714-86 374-86 402 59.49 402 86Z" opacity=".1" transform="translate(-120 -52.51)"/><path fill="#3f3d56" d="M952 738.49c0 26.51-173.714 48-388 48s-388-21.49-388-48 159.714-86 374-86 402 59.49 402 86Z" transform="translate(-120 -52.51)"/><path fill="#3f3d56" d="M694.429 605.571c0 38.03 23.857 68.802 53.34 68.802" transform="translate(-120 -52.51)"/><path fill="#007c89" d="M747.77 674.373c0-38.457 26.623-69.575 59.524-69.575M713.755 609.019c0 36.123 15.214 65.354 34.014 65.354" transform="translate(-120 -52.51)"/><path fill="#3f3d56" d="M747.77 674.373c0-49.139 30.772-88.901 68.801-88.901" transform="translate(-120 -52.51)"/><path fill="#a8a8a8" d="M736.548 674.858s7.565-.233 9.844-1.857 11.637-3.561 12.202-.958 11.368 12.95 2.828 13.018-19.844-1.33-22.12-2.716-2.754-7.487-2.754-7.487Z" transform="translate(-120 -52.51)"/><path d="M761.574 684.155c-8.54.069-19.844-1.33-22.12-2.717-1.732-1.055-2.422-4.843-2.653-6.59l-.253.01s.48 6.1 2.755 7.487 13.579 2.785 22.119 2.716c2.465-.02 3.317-.897 3.27-2.196-.343.785-1.283 1.275-3.118 1.29Z" opacity=".2" transform="translate(-120 -52.51)"/><ellipse cx="449" cy="680.981" opacity=".1" rx="132" ry="21"/><path fill="#ffb9b9" d="M494 633.981h13v30h-13z"/><path fill="#ff6584" d="M458 228.981h50v90h-50z"/><path fill="#ffb9b9" d="m544.721 399.312 1.73 13.845-45.571 13.844-5.769-25.381 49.61-2.308z"/><path fill="#ffb9b9" d="M597.229 318.569s-1.154 10.383-3.461 10.383-10.384 4.038-10.384 4.038l-2.307 10.96 16.152 9.807 26.535-2.884 7.499-11.537-7.5-7.5s-6.344-13.844-4.037-16.728-22.497 3.46-22.497 3.46Z" transform="translate(-120 -52.51)"/><path d="M597.229 318.569s-1.154 10.383-3.461 10.383-10.384 4.038-10.384 4.038l-2.307 10.96 16.152 9.807 26.535-2.884 7.499-11.537-7.5-7.5s-6.344-13.844-4.037-16.728-22.497 3.46-22.497 3.46Z" opacity=".1" transform="translate(-120 -52.51)"/><path fill="#ffb9b9" d="M525.122 677.948s-5.192 34.612-11.537 36.92 24.228 6.344 24.228 6.344l2.307-12.69s.577-23.074 2.884-26.536-17.882-4.038-17.882-4.038Z" transform="translate(-120 -52.51)"/><path fill="#2f2e41" d="M583.961 476.627s83.644-14.999 84.22-17.883 17.306 21.92 6.923 70.376-36.342 162.673-36.342 162.673-26.535 8.076-25.958 1.73S622.034 577 622.034 577l-5.77-46.725-9.806 5.769-40.956 80.759-20.767 69.8s-26.535 4.614-22.497-5.192 17.305-85.952 17.305-85.952l36.342-107.294s-1.154-11.537 8.076-11.537Z" transform="translate(-120 -52.51)"/><circle cx="485.016" cy="249.619" r="24.228" fill="#ffb9b9"/><path fill="#f2f2f2" d="M630.11 332.413s-11.538 10.96-38.65 8.076 7.5 61.724 7.5 61.724l10.96 65.184s48.455-5.769 50.186-16.729-29.997-118.255-29.997-118.255Z" transform="translate(-120 -52.51)"/><path fill="#2f2e41" d="M618.572 394.137s-13.844-6.923-19.036-25.959-9.806-38.649-12.69-38.072c-2.436.487-25.022 9.199-32.342 15.024-1.35 1.074-2.18 2.05-2.27 2.858-.577 5.192 20.767 57.109 20.767 57.109s16.729 37.495 9.806 49.61-7.499 27.688 5.192 26.534 54.801-3.46 49.033-35.764c0 0 10.96 22.497 41.533 6.345 0 0 18.46-2.884 17.882-9.23s-29.419-61.146-29.419-61.146-4.615-24.228 4.038-33.458l-19.613-23.074s-4.615-6.922-9.23-3.461-14.998 9.23-16.728 9.807-2.869-2.074-2.869-2.074a50.154 50.154 0 0 0-4.63 26.878c1.73 14.998.576 38.073.576 38.073ZM526.853 707.945s-1.288-4.038-8.72 0c0 0 2.374-12.69-5.702-12.69s-10.96 14.997-10.96 14.997-2.307 9.807-17.882 13.845-3.462 17.882 7.499 17.882 25.381-8.653 25.381-8.653 29.997.577 30.573-5.191-2.884-23.074-5.191-23.074-6.922 8.076-6.922 8.076ZM624.918 697.793s-8.076-8.653-12.691 5.769-8.076 20.19-5.192 22.497 5.192 1.154 4.038 5.768 3.461 14.422 13.845 14.422 13.267-7.5 12.69-12.691-5.191-11.537-5.191-11.537l-4.615-16.152Z" transform="translate(-120 -52.51)"/><path fill="#ffb9b9" d="m670.49 292.033-30.574 10.384s-27.69 16.152-15.575 19.613 22.497-10.384 22.497-10.384l26.535-6.922Z" transform="translate(-120 -52.51)"/><path fill="#ff6584" d="M588.532 264.663c-3.63 2.487-6.52 5.893-9.267 9.33-5.583 6.983-11.053 15.323-9.677 24.157.522 3.355 2.013 6.477 2.853 9.768 1.133 4.44 1.058 9.087.976 13.669a18.46 18.46 0 0 1-.715 5.764 37.99 37.99 0 0 1-2.842 5.254c-2.778 5.175-2.846 11.323-2.849 17.197a14.666 14.666 0 0 0 .791 5.831c.759 1.766 2.171 3.15 3.342 4.675a20.165 20.165 0 0 1 3.108 18.269 7.914 7.914 0 0 0 7.19-4.534 10.024 10.024 0 0 1-2.563 8.152c6.604-1.962 13.682-5.27 16.092-11.724a24.847 24.847 0 0 0 1.186-6.776c1.282-16.188 2.014-32.98-3.792-48.146-1.857-4.852-4.385-9.548-5.008-14.706s1.28-11.118 6.02-13.248a5.464 5.464 0 0 0 1.65 3.476c1.054.783 3.005.292 3.024-1.021l2.289 3.186a5.592 5.592 0 0 0 2.173-1.896l1.57 1.921 3.337-2.428 2.898 3.126a6.166 6.166 0 0 0 2.544-2.77c.623.932 1.394 1.956 2.51 2.057 2.43.22 2.931-3.637 5.054-4.84a3.583 3.583 0 0 1 4.472 1.355 7.3 7.3 0 0 1 .9 4.943c-.879 7.932-7.647 15.17-5.64 22.894 1.128 4.344 4.929 7.826 5.215 12.305.23 3.579-1.875 6.965-1.842 10.55.037 4.204 2.941 7.773 5.776 10.876q7.567 8.284 15.93 15.792l-1.722-3.013a5.592 5.592 0 0 1 4.386 1.613c.495-1.732-.326-3.537-1.1-5.163-4.638-9.74-8.382-20.109-8.941-30.88-.778-14.974 4.606-30.18 1.194-44.781a38.655 38.655 0 0 0-13.028-20.828c-3.156-2.597-5.549-4.153-9.635-4.44a72.72 72.72 0 0 0-13.725.108 31.418 31.418 0 0 0-14.134 4.926Z" transform="translate(-120 -52.51)"/><path fill="#2f2e41" d="M646.838 325.491s6.345.577 9.23 0 6.922-3.461 6.922-3.461l21.92-16.152-19.036 2.884s3.461-26.535 2.308-27.112 55.954-11.537 54.8 6.346-33.457 53.07-51.916 59.992l-12.114 1.73Z" transform="translate(-120 -52.51)"/><path fill="#fff" d="M317 477.491h272v64H317z"/><path fill="#3f3d56" d="M351.5 491.991h202v34h-202z"/><path fill="#fff" d="M518.442 560.754c-.08-.872-3.937-1.26-9.228-1.042 3.066-4.317 4.842-7.762 4.155-8.305-.648-.512-3.3 1.702-6.53 5.297-.304-4.823-1.013-8.204-1.839-8.204-.9 0-1.662 4.023-1.913 9.551-4.493-3.23-8.121-5.127-8.68-4.42-.533.675 1.895 3.525 5.756 6.936-5.095.755-8.685 1.822-8.605 2.679.08.872 3.937 1.26 9.228 1.042-3.066 4.317-4.842 7.762-4.155 8.305.648.512 3.3-1.702 6.53-5.297.304 4.823 1.013 8.204 1.839 8.204.9 0 1.662-4.023 1.913-9.551 4.493 3.23 8.121 5.127 8.68 4.42.533-.675-1.895-3.525-5.756-6.936 5.095-.756 8.685-1.823 8.605-2.679ZM552.442 560.754c-.08-.872-3.937-1.26-9.228-1.042 3.066-4.317 4.842-7.762 4.155-8.305-.648-.512-3.3 1.702-6.53 5.297-.304-4.823-1.013-8.204-1.839-8.204-.9 0-1.662 4.023-1.913 9.551-4.493-3.23-8.121-5.127-8.68-4.42-.533.675 1.895 3.525 5.756 6.936-5.095.755-8.685 1.822-8.605 2.679.08.872 3.937 1.26 9.228 1.042-3.066 4.317-4.842 7.762-4.155 8.305.648.512 3.3-1.702 6.53-5.297.304 4.823 1.013 8.204 1.839 8.204.9 0 1.662-4.023 1.913-9.551 4.493 3.23 8.121 5.127 8.68 4.42.533-.675-1.895-3.525-5.756-6.936 5.095-.756 8.685-1.823 8.605-2.679ZM586.442 560.754c-.08-.872-3.937-1.26-9.228-1.042 3.066-4.317 4.842-7.762 4.155-8.305-.648-.512-3.3 1.702-6.53 5.297-.304-4.823-1.013-8.204-1.839-8.204-.9 0-1.662 4.023-1.913 9.551-4.493-3.23-8.121-5.127-8.68-4.42-.533.675 1.895 3.525 5.756 6.936-5.095.755-8.685 1.822-8.605 2.679.08.872 3.937 1.26 9.228 1.042-3.066 4.317-4.842 7.762-4.155 8.305.648.512 3.3-1.702 6.53-5.297.304 4.823 1.013 8.204 1.839 8.204.9 0 1.662-4.023 1.913-9.551 4.493 3.23 8.121 5.127 8.68 4.42.533-.675-1.895-3.525-5.756-6.936 5.095-.756 8.685-1.823 8.605-2.679ZM620.442 560.754c-.08-.872-3.937-1.26-9.228-1.042 3.066-4.317 4.842-7.762 4.155-8.305-.648-.512-3.3 1.702-6.53 5.297-.304-4.823-1.013-8.204-1.839-8.204-.9 0-1.662 4.023-1.913 9.551-4.493-3.23-8.121-5.127-8.68-4.42-.533.675 1.895 3.525 5.756 6.936-5.095.755-8.685 1.822-8.605 2.679.08.872 3.937 1.26 9.228 1.042-3.066 4.317-4.842 7.762-4.155 8.305.648.512 3.3-1.702 6.53-5.297.304 4.823 1.013 8.204 1.839 8.204.9 0 1.662-4.023 1.913-9.551 4.493 3.23 8.121 5.127 8.68 4.42.533-.675-1.895-3.525-5.756-6.936 5.095-.756 8.685-1.823 8.605-2.679ZM654.442 560.754c-.08-.872-3.937-1.26-9.228-1.042 3.066-4.317 4.842-7.762 4.155-8.305-.648-.512-3.3 1.702-6.53 5.297-.304-4.823-1.013-8.204-1.839-8.204-.9 0-1.662 4.023-1.913 9.551-4.493-3.23-8.121-5.127-8.68-4.42-.533.675 1.895 3.525 5.756 6.936-5.095.755-8.685 1.822-8.605 2.679.08.872 3.937 1.26 9.228 1.042-3.066 4.317-4.842 7.762-4.155 8.305.648.512 3.3-1.702 6.53-5.297.304 4.823 1.013 8.204 1.839 8.204.9 0 1.662-4.023 1.913-9.551 4.493 3.23 8.121 5.127 8.68 4.42.533-.675-1.895-3.525-5.756-6.936 5.095-.756 8.685-1.823 8.605-2.679Z" transform="translate(-120 -52.51)"/><path fill="#ffb9b9" d="M548.773 502.585s-2.884 38.072 10.96 39.803 1.154-43.264 1.154-43.264Z" transform="translate(-120 -52.51)"/><path fill="#2f2e41" d="m556.272 346.835-4.038 1.153s-16.729 133.83-5.768 159.789c0 0 11.537-6.346 17.305-5.192l9.23-109.025Z" transform="translate(-120 -52.51)"/></svg>