<?xml version="1.0" encoding="UTF-8"?>
<!-- Generator: Adobe Illustrator 16.0.3, SVG Export Plug-In . SVG Version: 6.00 Build 0)  -->
<!DOCTYPE svg PUBLIC "-//W3C//DTD SVG 1.1//EN" "http://www.w3.org/Graphics/SVG/1.1/DTD/svg11.dtd">
<svg version="1.1" id="Vrstva_1" xmlns="http://www.w3.org/2000/svg" xmlns:xlink="http://www.w3.org/1999/xlink" x="0px" y="0px" width="80px" height="100px" viewBox="14.5 17.8 80 100" enable-background="new 14.5 17.8 80 100" xml:space="preserve">
<g>
	<path fill="#C99B09" d="M94.2,60.1c5.4,24.9-6.7,53.1-28.1,57.8c-21.3,4.6-43.9-15.9-49.4-40.9c-5.4-25,6.7-53.1,28.1-57.8   C66.3,14.6,88.9,35.2,94.2,60.1z"/>
	<path opacity="0.5" fill="#E0CE2D" enable-background="new    " d="M47.9,21.6c19-4.1,38.3,10.5,43.1,32.7   c4.8,22.2-6.8,43.5-25.8,47.7c-19,4.1-38.3-10.5-43.1-32.7C17.3,47.1,28.9,25.8,47.9,21.6z"/>
	<path fill="#E0CE2D" d="M52.1,23.2c16-3.5,32.2,8.8,36.2,27.5s-5.7,36.7-21.7,40.1c-16,3.5-32.2-8.8-36.2-27.5   C26.4,44.6,36.1,26.7,52.1,23.2z"/>
</g>
</svg>