<svg xmlns="http://www.w3.org/2000/svg" xmlns:xlink="http://www.w3.org/1999/xlink" id="Vrstva_1" width="80" height="100" x="0" y="0" enable-background="new 14.5 17.8 80 100" version="1.1" viewBox="14.5 17.8 80 100" xml:space="preserve"><g><path fill="#6E22C6" d="M93.2,59.3c5.4,24.9-6.7,53.1-28.1,57.8c-21.4,4.7-43.9-15.9-49.4-40.9c-5.4-24.9,6.7-53.1,28.1-57.8 C65.3,13.8,87.8,34.4,93.2,59.3z"/><path fill="#B54AF4" d="M46.9,20.8c19-4.1,38.3,10.5,43.1,32.7 c4.8,22.2-6.8,43.5-25.8,47.7c-19,4.1-38.3-10.5-43.1-32.7C16.3,46.3,27.9,25,46.9,20.8z" enable-background="new" opacity=".5"/><path fill="#B54AF4" d="M51.1,22.4c16-3.5,32.2,8.8,36.2,27.5c4,18.7-5.7,36.7-21.7,40.1c-16,3.5-32.2-8.8-36.2-27.5 C25.4,43.8,35.1,25.9,51.1,22.4z"/></g></svg>