<svg width="50" height="50" viewBox="0 0 50 50" fill="none" xmlns="http://www.w3.org/2000/svg">
<circle cx="25" cy="25" r="25" fill="#C4C4C4"/>
<circle cx="25" cy="25" r="25" fill="url(#paint0_linear)"/>
<path fill-rule="evenodd" clip-rule="evenodd" d="M39 48L28.2 3H22.8L12 48H17.85L25.5 14.7387L33.15 48H39Z" fill="#F8C884"/>
<path fill-rule="evenodd" clip-rule="evenodd" d="M3 7.5H48V35.4H3V7.5Z" fill="#F29C1F"/>
<path d="M7.5 30.4502L13.3608 24.5894L16.05 26.8502L23.6946 19.6448L27.75 23.7002L34.5 16.9502L36.75 19.2002L43.5 12.4502" stroke="#FFF9F0" stroke-miterlimit="10" stroke-linecap="round" stroke-linejoin="round"/>
<path fill-rule="evenodd" clip-rule="evenodd" d="M35.9766 35.3999H30.2526L30.4596 36.2999H36.1926L35.9766 35.3999ZM14.8086 36.2999H20.5416L20.7486 35.3999H15.0246L14.8086 36.2999Z" fill="#E57E25"/>
<defs>
<linearGradient id="paint0_linear" x1="25" y1="-105" x2="25" y2="33" gradientUnits="userSpaceOnUse">
<stop offset="0.0371712" stop-color="#F29C1F"/>
<stop offset="1" stop-color="#FFF9F0"/>
</linearGradient>
</defs>
</svg>
