<?xml version="1.0" encoding="utf-8"?>
<!-- Generator: Adobe Illustrator 23.0.1, SVG Export Plug-In . SVG Version: 6.00 Build 0)  -->
<svg version="1.1" id="a258fe46-239e-41b2-ae9b-c22059e5ba3c"
	 xmlns="http://www.w3.org/2000/svg" xmlns:xlink="http://www.w3.org/1999/xlink" x="0px" y="0px" viewBox="0 0 743.4 590.1"
	 style="enable-background:new 0 0 743.4 590.1;" xml:space="preserve">
<style type="text/css">
	.st0{fill:#3F3D56;}
	.st1{fill:#6C63FF;}
	.st2{opacity:0.2;enable-background:new    ;}
	.st3{fill:#575A89;}
	.st4{fill:#A0616A;}
	.st5{fill:#D0CDE1;}
	.st6{fill:#2F2E41;}
</style>
<title>travel_mode</title>
<circle class="st0" cx="560.1" cy="575.8" r="9.5"/>
<path class="st0" d="M561.4,378.3l-25.1-66.5c0,0,3.9-12.5-6.5-11.7s-38,10.4-38,10.4s-9.5,0.9,3.5,14.3l22.5,70.4l7.3-3.5l-24.2-70
	c0,0-1.3-4.8,3.5-6c4.8-1.3,22.9-9.1,24.6-4.3s24.2,73,24.2,73L561.4,378.3z"/>
<path class="st1" d="M494,424.1l48.4,144.7c3.9,2.6,8.2,4.6,12.6,6.1c4,1.4,8.2,2.4,12.4,3c1.6,0.1,3.2,0,4.7-0.4
	c24.9-5,110.2-50.6,110.2-50.6s-43.6-136.1-51-152.5s-23.8-10.4-23.8-10.4s-82.9,22.4-94.8,26.6c-0.2,0.1-0.5,0.2-0.6,0.2
	c-5.2,1.9-9.8,5.4-13,9.9l0,0C487,408.1,494,424.1,494,424.1z"/>
<path class="st2" d="M528.7,385.4l0.2,0.8c3.7-1,6.9,7.3,7,7.4L589,540.9l0.8-0.3l-6.7-18.7l72.4-32l5.7,16.4l0.8-0.3l-47.5-136.6
	l0,0c-0.2-0.3-4.2-6.5-8.9-5.3l0.2,0.8c4-1.1,7.6,4.3,8,4.9l10.1,28.9l-76.1,24.9l-10.9-30.4C536.6,392.9,533.2,384.1,528.7,385.4z
	 M624,399.6l7.4,21.3l-74.9,27.4l-8.6-23.8L624,399.6z M565.4,472.8l-8.6-23.7l74.9-27.4l7.4,21.1L565.4,472.8z M639.4,443.7
	l8.1,23.2l-73.6,29.4l-8.2-22.7L639.4,443.7z M582.8,521.1l-8.7-24l73.6-29.4l7.5,21.5L582.8,521.1z"/>
<path class="st2" d="M499.1,418.9c4.3,6.9,52.7,151.6,52.7,151.6c0.9,1.6,1.9,3,3.1,4.4c4,1.4,8.2,2.4,12.4,3c1.6,0.1,3.2,0,4.7-0.4
	c-3-1.1-9.6-4.5-12.9-14.7c-4.3-13.4-51.8-154.7-51.8-154.7s1.5-10.7,5.4-17.5c-0.2,0.1-0.5,0.2-0.6,0.2c-5.2,1.9-9.8,5.4-13,9.9
	l0,0C499.1,400.8,494.8,412,499.1,418.9z"/>
<path class="st0" d="M507.8,450.9l4.8,14.7c0,0-3.9,28.9,16.4,48l4.3,14.7l-4.5,0.1l-4.7-14.1c0,0-15.7-18.9-15.8-47.2l-4-16.2
	L507.8,450.9z"/>
<circle class="st0" cx="589.2" cy="576" r="9.5"/>
<circle class="st0" cx="681.5" cy="536" r="9.5"/>
<path class="st3" d="M340.1,131.6c0,0-22,4-23,13c-0.6,6.3-0.6,12.7,0,19L340.1,131.6z"/>
<path class="st3" d="M466.1,341.6c0,0-64,23-106,3c-42-20-93-45-93-45s-25,2-22-13s23-102,69-131c0,0,28-36,44-34s78,150,78,150
	L466.1,341.6z"/>
<path class="st2" d="M466.1,341.6c0,0-64,23-106,3c-42-20-93-45-93-45s-25,2-22-13s23-102,69-131c0,0,28-36,44-34s78,150,78,150
	L466.1,341.6z"/>
<path class="st4" d="M500.1,287.6l4,10c0,0,26,16,15,27s-27.6-18.5-27.6-18.5l-6.4-12.5L500.1,287.6z"/>
<polygon class="st4" points="281.1,466.6 277.1,535.6 298.1,544.6 306.1,461.6 "/>
<polygon class="st4" points="366.1,466.6 394.1,502.6 402.1,526.6 422.1,525.6 427.1,501.6 399.1,473.6 "/>
<circle class="st4" cx="363.6" cy="86.1" r="27"/>
<path class="st4" d="M358.1,106.6l2,25l32-10c0,0-12-19-9-24L358.1,106.6z"/>
<path class="st5" d="M358.1,121.6c0,0,18.9,5,30-7l23,11l-30,112l-63-17l10-22c0,0-13-15,1-29c0,0,3-28,12-34
	C347.1,131.4,352.8,126.7,358.1,121.6z"/>
<path class="st3" d="M387.6,114.1c0,0-34,27,3,107s68,148,80,144s53-35,39-46s-73-46-81-92s11-93,11-93L387.6,114.1z"/>
<polygon class="st3" points="425.1,144.6 511.1,289.6 487.1,299.6 413.1,199.6 "/>
<path class="st6" d="M323.1,217.6h-7l-26,56c0,0-49,148-44,178s191,26,181,25c-9.5-0.9-59-228.9-44.5-241.5L323.1,217.6z"/>
<path class="st6" d="M284.1,527.6c0,0-2-8-10-8s-8,11-8,11l-23,21c0,0-20,25,6,25s26-6,26-6s7-7,13-3s20-4,18-8s-5-29.9-7-25.4
	S284.1,527.6,284.1,527.6z"/>
<path class="st6" d="M417.1,515.6c0,0,2-1-8,0s-14,0-14,0l7,27c0,0-6,46,14,42s20-32,20-32s-3-25-1-27s1-29-2-29s-17.5-6.5-17.5-6.5
	S425.1,515.6,417.1,515.6z"/>
<path class="st6" d="M364.4,87.7c-1.7-2.6-0.8-6.1-2-9c-1.8-4.5-7.6-5.5-12.4-5.9c-3.2-0.4-6.4-0.4-9.6,0c-2.9,0.5-5.3,2.3-6.7,4.8
	c-0.7,1.4-0.5-3.1-0.1-8.8c1-12.1,9.6-22.1,21.3-24.9c0.1,0,0.1,0,0.2,0c5.9-1.4,11.9-2.4,17.9-1.6s12,3.3,15.7,8
	c1.7,2.2,2.9,4.7,4.8,6.7c3.3,3.5,8.3,4.8,12.9,6.4c5.2,1.7,10,4.5,14.1,8.1c3.9,3.8,6.7,9,6.8,14.5c0.1,6.4-4,13-10.5,14.2
	c-1.1,0.2-2.2,0.7-3.1,1.4c-6.3,4.8,0.9,9.9,0.8,15.4c0,4.6-5.1,7.5-9.7,7.7c-8.8,0.2-16.4-5.9-18.2-14.5c-0.7-3.7-0.2-7.6,0.3-11.3
	c0.5-4.3-8.8-14.5-2.6-7c1.2,1.4,2,3.1,2.3,4.9c1,6-4.4,8-7.8,11.3c-3.8,3.8-5.2,9.5-3.4,14.6c-5.8-5.3-7.1-13.9-3-20.6
	c1.1-1.7,2.5-3.2,3.6-4.9c1.6-2.7,2.1-8.5-2.5-8.4C370.3,88.9,366.9,91.6,364.4,87.7z"/>
</svg>
