<svg xmlns="http://www.w3.org/2000/svg" xmlns:xlink="http://www.w3.org/1999/xlink" id="Layer_1" x="0" y="0" version="1.1" viewBox="0 0 512 512" xml:space="preserve" style="enable-background:new 0 0 512 512"><style type="text/css">.st0{fill:#333}</style><g id="XMLID_1_"><path id="XMLID_8_" d="M256.8,0c-141,0-256,115-256,256s115,256,256,256c17.3,0,34.7-1.6,50.4-5.5 c-6.3-3.2-7.1-26.8-0.8-40.2c7.1-15,29.9-52.8,7.1-66.2c-22.1-12.6-15.8-18.1-29.9-33.1c-13.4-15-7.9-17.3-9.5-21.3 c-3.2-12.6,13.4-32.3,14.2-34.7v-11.8l-12.6-8.7l-7.1,4.7c-3.2,0.8-18.1-9.5-21.3-11.8c-3.2-3.2-5.5-8.7-10.2-12.6 c-4.7-4.7-5.5-0.8-11.8-3.9s-29.1-11-47.3-17.3c-17.3-7.1-18.9-17.3-18.9-24.4c-0.8-7.1-11-17.3-15.8-24.4 c-5.5-7.1-5.5-17.3-7.1-15l7.1,29.9c-1.6,0.8-5.5-7.1-11-14.2c-5.5-7.1,5.5-3.2-11-34.7s5.5-47.3,6.3-63.8 c0.8-16.5,14.2,6.3,7.1-4.7s0-32.3-5.5-41c-4.7-7.9-32.3,9.5-32.3,9.5c0.8-7.9,25.2-21.3,42.5-33.9c17.3-12.6,28.4-2.4,42.5,1.6 c14.2,4.7,15,3.2,10.2-1.6c-4.7-4.7,2.4-6.3,13.4-4.7c10.2,1.6,14.2,15,30.7,13.4c17.3-0.8,1.6,3.2,3.9,7.9s-2.4,3.9-14.2,11 c-11,7.1,0.8,7.9,20.5,22.1s14.2-9.5,11-20.5c-2.4-11,14.2-2.4,14.2-2.4c11.8,7.9,10.2,0.8,18.1,3.2c8.7,2.4,33.1,23.6,33.1,23.6 c-30.7,15.8-11,17.3-6.3,21.3c5.5,3.9-10.2,11-10.2,11c-6.3-6.3-7.1,0.8-11,3.2c-3.9,2.4-0.8,7.9-0.8,7.9 c-20.5,3.2-15.8,25.2-15.8,30.7s-14.2,13.4-17.3,21.3c-3.2,7.1,9.5,23.6,2.4,24.4c-7.1,0.8-12.6-24.4-48-15 c-11,3.2-34.7,15-21.3,39.4c13.4,25.2,33.9-7.1,41-3.2c7.1,3.9-2.4,19.7-0.8,20.5s19.7,0.8,20.5,22.1c0.8,21.3,28.4,19.7,33.9,20.5 c6.3,0,26-15.8,28.4-16.5s14.2-10.2,37.8,3.2c24.4,13.4,36.2,11,44.1,17.3c7.9,5.5,3.2,17.3,10.2,21.3c7.1,3.9,38.6-0.8,47.3,11 c7.9,12.6-32.3,76.4-44.9,83.5c-12.6,7.1-17.3,23.6-30.7,33.9c-13.4,10.2-29.9,23.6-46.5,33.1c-15,8.7-17.3,24.4-24.4,29.1 c115-26,200.9-128.4,200.9-250.5C512.8,115,397.8,0,256.8,0L256.8,0z M317.4,240.2c-3.2,0.8-10.2,7.9-28.4-3.2 c-17.3-11-29.9-8.7-31.5-10.2c0,0-1.6-3.9,6.3-5.5c15.8-1.6,36.2,15,41,15c4.7,0,7.1-4.7,15-1.6 C326.9,237.9,320.6,239.5,317.4,240.2z M233.1,25.2l3.2-5.5l1.6-5.5c3.9-3.9,22.1-9.5,18.9,0.8C252.8,26,235.5,26.8,233.1,25.2z M278,57.5c-7.1-0.8-21.3-1.6-18.9-5.5c11-10.2-3.2-14.2-12.6-14.2c-9.5-0.8-12.6-5.5-7.9-7.1c4.7-0.8,22.1,0.8,26,3.2 c3.2,2.4,18.9,9.5,20.5,14.2C285.1,53.6,284.3,57.5,278,57.5z M331.6,55.9c-5.5,3.2-30.7-15-34.7-18.9c-20.5-17.3-32.3-11-36.2-15 c-3.9-3.9-3.2-7.1,3.9-12.6c7.1-5.5,25.2,2.4,36.2,3.2c11,0.8,24.4,10.2,24.4,20.5C326.1,41.7,337.1,51.2,331.6,55.9L331.6,55.9z" class="st0"/></g></svg>