<svg xmlns="http://www.w3.org/2000/svg" xmlns:xlink="http://www.w3.org/1999/xlink" width="18" height="18" version="1.1" viewBox="0 0 18 18"><title>facebook-official - FontAwesome</title><desc>Created with Sketch.</desc><g id="login" fill="none" fill-rule="evenodd" stroke="none" stroke-width="1"><g id="Group-14" fill="#FFF"><g transform="translate(-503.000000, -298.000000) translate(378.000000, 133.000000)"><g id="sosomed" transform="translate(89.000000, 150.000000)"><path id="facebook-official---FontAwesome" d="M52.1942157,15.2856956 C52.7187699,15.2856956 53.1428776,15.7098032 53.1428776,16.2343574 L53.1428776,31.4799113 C53.1428776,32.0044655 52.7187699,32.4285731 52.1942157,32.4285731 L47.8303712,32.4285731 L47.8303712,25.7879402 L50.051356,25.7879402 L50.3861779,23.1986514 L47.8303712,23.1986514 L47.8303712,21.5468637 C47.8303712,20.799095 48.0312643,20.2968622 49.1138549,20.2968622 L50.4754637,20.2857015 L50.4754637,17.9754309 C50.2410884,17.9419487 49.4263553,17.8749844 48.4888542,17.8749844 C46.5134054,17.8749844 45.1517966,19.0803429 45.1517966,21.290167 L45.1517966,23.1986514 L42.9196511,23.1986514 L42.9196511,25.7879402 L45.1517966,25.7879402 L45.1517966,32.4285731 L36.9486618,32.4285731 C36.4241076,32.4285731 36,32.0044655 36,31.4799113 L36,16.2343574 C36,15.7098032 36.4241076,15.2856956 36.9486618,15.2856956 L52.1942157,15.2856956 Z"/></g></g></g></g></svg>