<svg xmlns="http://www.w3.org/2000/svg" xmlns:xlink="http://www.w3.org/1999/xlink" width="24" height="24" version="1.1" viewBox="0 0 24 24"><g fill="none" fill-rule="evenodd" stroke="none"><path fill="#4285F4" d="M20.16,12.1931818 C20.16,11.5904545 20.1059091,11.0109091 20.0054545,10.4545455 L12,10.4545455 L12,13.7425 L16.5745455,13.7425 C16.3775,14.805 15.7786364,15.7052273 14.8784091,16.3079545 L14.8784091,18.4406818 L17.6254545,18.4406818 C19.2327273,16.9609091 20.16,14.7818182 20.16,12.1931818 L20.16,12.1931818 Z" class="icon_svg-fill_as_stroke"/><path fill="#34A853" d="M12,20.5 C14.295,20.5 16.2190909,19.7388636 17.6254545,18.4406818 L14.8784091,16.3079545 C14.1172727,16.8179545 13.1436364,17.1193182 12,17.1193182 C9.78613636,17.1193182 7.91227273,15.6240909 7.24386364,13.615 L4.40409091,13.615 L4.40409091,15.8172727 C5.80272727,18.5952273 8.67727273,20.5 12,20.5 L12,20.5 Z" class="icon_svg-fill_as_stroke"/><path fill="#FBBC05" d="M7.24386364,13.615 C7.07386364,13.105 6.97727273,12.5602273 6.97727273,12 C6.97727273,11.4397727 7.07386364,10.895 7.24386364,10.385 L7.24386364,8.18272727 L4.40409091,8.18272727 C3.82840909,9.33022727 3.5,10.6284091 3.5,12 C3.5,13.3715909 3.82840909,14.6697727 4.40409091,15.8172727 L7.24386364,13.615 L7.24386364,13.615 Z" class="icon_svg-fill_as_stroke"/><path fill="#EA4335" d="M12,6.88068182 C13.2479545,6.88068182 14.3684091,7.30954545 15.2493182,8.15181818 L17.6872727,5.71386364 C16.2152273,4.34227273 14.2911364,3.5 12,3.5 C8.67727273,3.5 5.80272727,5.40477273 4.40409091,8.18272727 L7.24386364,10.385 C7.91227273,8.37590909 9.78613636,6.88068182 12,6.88068182 L12,6.88068182 Z" class="icon_svg-fill_as_stroke"/></g></svg>